<?xml version="1.0"?>
<svg version="1.1" xmlns="http://www.w3.org/2000/svg" xmlns:xlink="http://www.w3.org/1999/xlink" width="712" height="332">
    <desc iVinci="yes" version="4.6" gridStep="20" showGrid="no" snapToGrid="no" codePlatform="0"/>
    <g id="Layer1" name="Layer 1" opacity="1">
        <g id="Shape1">
            <desc shapeID="1" type="0" basicInfo-basicType="0" basicInfo-roundedRectRadius="12" basicInfo-polygonSides="6" basicInfo-starPoints="5" bounding="rect(-251.5,-256,503,512)" text="" font-familyName="" font-pixelSize="20" font-bold="0" font-underline="0" font-alignment="1" strokeStyle="0" markerStart="0" markerEnd="0" shadowEnabled="0" shadowOffsetX="0" shadowOffsetY="2" shadowBlur="4" shadowOpacity="160" blurEnabled="0" blurRadius="4" transform="matrix(0.63535,0,0,0.63535,163.107,166)" pers-center="0,0" pers-size="0,0" pers-start="0,0" pers-end="0,0" locked="0" mesh="" flag=""/>
            <path id="shapePath1" d="M245.702,150.116 L244.432,145.033 L208.217,9.06865 C243.161,18.3871 271.752,37.3417 293.989,65.9324 L245.702,150.116 M211.076,98.3353 C208.746,96.8528 207.264,95.8998 206.628,95.4762 L84.6411,25.2701 C109.843,10.657 136.952,3.35051 165.966,3.35051 C171.896,3.35051 178.567,3.77408 185.979,4.62122 L211.076,98.3353 M150.082,86.2636 L144.999,87.5343 L9.03455,123.749 C18.353,88.805 37.3076,60.2143 65.8983,37.9771 L150.082,86.2636 M98.3012,120.89 C96.8187,123.22 95.8657,124.702 95.4421,125.338 L25.236,247.325 C10.6229,222.123 3.31639,195.014 3.31639,166 C3.31639,160.07 3.73996,153.399 4.5871,145.986 L98.3012,120.89 M86.2295,181.884 C86.8649,184.637 87.2884,186.331 87.5002,186.967 L123.715,322.931 C88.7709,313.613 60.1802,294.658 37.9429,266.068 L86.2295,181.884 M120.856,233.665 C123.186,235.147 124.668,236.1 125.304,236.524 L247.291,306.73 C222.088,321.343 194.98,328.649 165.966,328.649 C160.036,328.649 153.365,328.226 145.952,327.379 L120.856,233.665 M181.85,245.736 C184.815,245.101 186.509,244.677 186.932,244.466 L322.897,208.251 C313.579,243.195 294.624,271.786 266.033,294.023 L181.85,245.736 Z" style="stroke:none;fill-rule:evenodd;fill:#000000;fill-opacity:1;"/>
        </g>
        <g id="Shape2">
            <desc shapeID="2" type="0" basicInfo-basicType="0" basicInfo-roundedRectRadius="12" basicInfo-polygonSides="6" basicInfo-starPoints="5" bounding="rect(-224.684,-47.4365,449.367,94.873)" text="Company" font-familyName="Helvetica" font-pixelSize="100" font-bold="1" font-underline="0" font-alignment="1" strokeStyle="0" markerStart="0" markerEnd="0" shadowEnabled="0" shadowOffsetX="0" shadowOffsetY="2" shadowBlur="4" shadowOpacity="160" blurEnabled="0" blurRadius="4" transform="matrix(1,0,0,1,484,170.263)" pers-center="0,0" pers-size="0,0" pers-start="0,0" pers-end="0,0" locked="0" mesh="" flag=""/>
            <path id="shapePath2" d="M269.424,131.713 C275.283,125.788 282.738,122.826 291.787,122.826 C303.896,122.826 312.751,126.797 318.35,134.74 C321.442,139.2 323.102,143.676 323.33,148.168 L308.291,148.168 C307.314,144.717 306.061,142.113 304.531,140.355 C301.797,137.23 297.744,135.668 292.373,135.668 C286.904,135.668 282.591,137.873 279.434,142.284 C276.276,146.695 274.697,152.937 274.697,161.01 C274.697,169.083 276.366,175.129 279.702,179.149 C283.039,183.169 287.279,185.18 292.422,185.18 C297.695,185.18 301.716,183.454 304.482,180.004 C306.012,178.148 307.282,175.365 308.291,171.654 L323.184,171.654 C321.882,179.499 318.553,185.879 313.198,190.795 C307.843,195.71 300.983,198.168 292.617,198.168 C282.266,198.168 274.128,194.848 268.203,188.207 C262.279,181.534 259.316,172.387 259.316,160.766 C259.316,148.2 262.686,138.516 269.424,131.713 M366.773,182.006 C368.954,179.109 370.045,174.991 370.045,169.652 C370.045,164.314 368.954,160.204 366.773,157.323 C364.592,154.442 361.467,153.002 357.398,153.002 C353.329,153.002 350.196,154.442 347.999,157.323 C345.802,160.204 344.703,164.314 344.703,169.652 C344.703,174.991 345.802,179.109 347.999,182.006 C350.196,184.903 353.329,186.351 357.398,186.351 C361.467,186.351 364.592,184.903 366.773,182.006 M377.906,189.696 C373.414,195.246 366.594,198.021 357.447,198.021 C348.3,198.021 341.48,195.246 336.988,189.696 C332.496,184.146 330.25,177.465 330.25,169.652 C330.25,161.97 332.496,155.313 336.988,149.682 C341.48,144.05 348.3,141.234 357.447,141.234 C366.594,141.234 373.414,144.05 377.906,149.682 C382.398,155.313 384.645,161.97 384.645,169.652 C384.645,177.465 382.398,184.146 377.906,189.696 M461.006,143.139 C463.285,144.05 465.352,145.645 467.207,147.924 C468.704,149.779 469.714,152.058 470.234,154.76 C470.56,156.55 470.723,159.17 470.723,162.621 L470.625,196.166 L456.367,196.166 L456.367,162.279 C456.367,160.261 456.042,158.601 455.391,157.299 C454.154,154.825 451.875,153.588 448.555,153.588 C444.714,153.588 442.061,155.183 440.596,158.373 C439.847,160.066 439.473,162.1 439.473,164.476 L439.473,196.166 L425.459,196.166 L425.459,164.476 C425.459,161.319 425.133,159.024 424.482,157.592 C423.311,155.02 421.016,153.734 417.598,153.734 C413.626,153.734 410.957,155.02 409.59,157.592 C408.841,159.057 408.467,161.238 408.467,164.135 L408.467,196.166 L394.355,196.166 L394.355,143.041 L407.881,143.041 L407.881,150.805 C409.606,148.038 411.234,146.068 412.764,144.896 C415.465,142.813 418.965,141.771 423.262,141.771 C427.331,141.771 430.618,142.667 433.125,144.457 C435.143,146.117 436.673,148.249 437.715,150.853 C439.538,147.728 441.8,145.433 444.502,143.969 C447.367,142.504 450.557,141.771 454.072,141.771 C456.416,141.771 458.727,142.227 461.006,143.139 M517.368,158.666 C515.496,155.508 512.461,153.93 508.262,153.93 C503.216,153.93 499.749,156.322 497.861,161.107 C496.885,163.646 496.396,166.869 496.396,170.775 C496.396,176.96 498.04,181.306 501.328,183.812 C503.281,185.277 505.592,186.01 508.262,186.01 C512.135,186.01 515.09,184.512 517.124,181.517 C519.159,178.523 520.176,174.535 520.176,169.555 C520.176,165.453 519.24,161.823 517.368,158.666 M528.062,148.656 C532.375,153.246 534.531,159.984 534.531,168.871 C534.531,178.246 532.424,185.391 528.208,190.307 C523.992,195.222 518.564,197.68 511.924,197.68 C507.692,197.68 504.176,196.622 501.377,194.506 C499.847,193.334 498.35,191.625 496.885,189.379 L496.885,217.113 L483.115,217.113 L483.115,142.943 L496.445,142.943 L496.445,150.805 C497.943,148.493 499.538,146.67 501.23,145.336 C504.323,142.96 508.001,141.771 512.266,141.771 C518.483,141.771 523.748,144.066 528.062,148.656 M573.93,170.287 C573.051,170.84 572.164,171.288 571.269,171.63 C570.373,171.972 569.145,172.289 567.582,172.582 L564.457,173.168 C561.527,173.689 559.428,174.323 558.158,175.072 C556.01,176.342 554.936,178.311 554.936,180.98 C554.936,183.357 555.595,185.074 556.913,186.132 C558.231,187.19 559.835,187.719 561.723,187.719 C564.717,187.719 567.476,186.84 569.999,185.082 C572.522,183.324 573.832,180.118 573.93,175.463 L573.93,170.287 M565.482,163.793 C568.054,163.467 569.893,163.06 571,162.572 C572.986,161.726 573.979,160.407 573.979,158.617 C573.979,156.436 573.222,154.931 571.708,154.1 C570.194,153.27 567.973,152.855 565.043,152.855 C561.755,152.855 559.428,153.669 558.061,155.297 C557.084,156.501 556.433,158.129 556.107,160.18 L542.68,160.18 C542.973,155.525 544.275,151.7 546.586,148.705 C550.264,144.017 556.579,141.674 565.531,141.674 C571.358,141.674 576.534,142.829 581.059,145.141 C585.583,147.452 587.846,151.814 587.846,158.226 L587.846,182.641 C587.846,184.333 587.878,186.384 587.943,188.793 C588.041,190.616 588.318,191.853 588.773,192.504 C589.229,193.155 589.913,193.692 590.824,194.115 L590.824,196.166 L575.688,196.166 C575.264,195.092 574.971,194.083 574.809,193.139 C574.646,192.195 574.516,191.12 574.418,189.916 C572.497,191.999 570.284,193.773 567.777,195.238 C564.783,196.963 561.397,197.826 557.621,197.826 C552.803,197.826 548.824,196.451 545.683,193.7 C542.541,190.949 540.971,187.051 540.971,182.006 C540.971,175.463 543.493,170.726 548.539,167.797 C551.306,166.202 555.375,165.062 560.746,164.379 L565.482,163.793 M643.187,145.995 C646.686,148.876 648.436,153.653 648.436,160.326 L648.436,196.166 L634.178,196.166 L634.178,163.793 C634.178,160.993 633.803,158.845 633.055,157.348 C631.688,154.613 629.083,153.246 625.242,153.246 C620.522,153.246 617.283,155.248 615.525,159.252 C614.614,161.368 614.158,164.07 614.158,167.357 L614.158,196.166 L600.291,196.166 L600.291,143.041 L613.719,143.041 L613.719,150.805 C615.509,148.07 617.202,146.101 618.797,144.896 C621.661,142.748 625.291,141.674 629.686,141.674 C635.187,141.674 639.687,143.114 643.187,145.995 M663.42,206.371 L665.178,206.469 C666.545,206.534 667.847,206.485 669.084,206.322 C670.321,206.159 671.363,205.785 672.209,205.199 C673.023,204.646 673.78,203.49 674.479,201.732 C675.179,199.974 675.464,198.9 675.334,198.51 L655.803,142.943 L671.281,142.943 L682.902,182.201 L693.889,142.943 L708.684,142.943 L690.422,195.287 C686.906,205.378 684.123,211.636 682.072,214.061 C680.021,216.487 675.92,217.699 669.768,217.699 C668.531,217.699 667.538,217.691 666.789,217.675 C666.04,217.658 664.917,217.601 663.42,217.504 L663.42,206.371 Z" style="stroke:none;fill-rule:nonzero;fill:#000000;fill-opacity:1;"/>
        </g>
        <g id="Shape3">
            <desc shapeID="3" type="0" basicInfo-basicType="0" basicInfo-roundedRectRadius="12" basicInfo-polygonSides="6" basicInfo-starPoints="5" bounding="rect(-39.4771,-11.4055,78.9541,22.811)" text="Name" font-familyName="Helvetica" font-pixelSize="31" font-bold="0" font-underline="0" font-alignment="1" strokeStyle="0" markerStart="0" markerEnd="0" shadowEnabled="0" shadowOffsetX="0" shadowOffsetY="2" shadowBlur="4" shadowOpacity="160" blurEnabled="0" blurRadius="4" transform="matrix(1,0,0,1,370.738,223.99)" pers-center="0,0" pers-size="0,0" pers-start="0,0" pers-end="0,0" locked="0" mesh="" flag=""/>
            <path id="shapePath3" d="M331.261,212.584 L334.819,212.584 L346.05,230.597 L346.05,212.584 L348.911,212.584 L348.911,234.82 L345.535,234.82 L334.137,216.822 L334.137,234.82 L331.261,234.82 L331.261,212.584 M356.225,232.368 C356.8,232.822 357.481,233.049 358.268,233.049 C359.227,233.049 360.155,232.827 361.053,232.383 C362.567,231.646 363.324,230.44 363.324,228.765 L363.324,226.57 C362.991,226.782 362.562,226.959 362.037,227.1 C361.513,227.241 360.998,227.342 360.493,227.403 L358.843,227.615 C357.855,227.746 357.113,227.953 356.618,228.235 C355.781,228.71 355.362,229.467 355.362,230.506 C355.362,231.293 355.65,231.914 356.225,232.368 M361.962,224.996 C362.587,224.915 363.006,224.653 363.218,224.209 C363.339,223.967 363.4,223.619 363.4,223.165 C363.4,222.236 363.069,221.563 362.408,221.144 C361.747,220.725 360.801,220.516 359.57,220.516 C358.147,220.516 357.138,220.899 356.543,221.666 C356.21,222.09 355.993,222.721 355.892,223.558 L353.349,223.558 C353.399,221.56 354.048,220.17 355.294,219.388 C356.54,218.606 357.986,218.215 359.631,218.215 C361.538,218.215 363.087,218.578 364.278,219.305 C365.458,220.031 366.049,221.161 366.049,222.695 L366.049,232.035 C366.049,232.317 366.107,232.544 366.223,232.716 C366.339,232.887 366.583,232.973 366.957,232.973 C367.078,232.973 367.214,232.966 367.365,232.95 C367.517,232.935 367.678,232.913 367.85,232.882 L367.85,234.896 C367.426,235.017 367.103,235.092 366.881,235.123 C366.659,235.153 366.356,235.168 365.973,235.168 C365.034,235.168 364.353,234.835 363.929,234.169 C363.707,233.816 363.551,233.316 363.46,232.67 C362.905,233.397 362.108,234.028 361.069,234.563 C360.029,235.097 358.884,235.365 357.633,235.365 C356.129,235.365 354.9,234.908 353.947,233.995 C352.993,233.082 352.516,231.939 352.516,230.566 C352.516,229.063 352.986,227.897 353.924,227.07 C354.862,226.242 356.094,225.733 357.617,225.541 L361.962,224.996 M370.508,218.608 L373.202,218.608 L373.202,220.909 C373.848,220.112 374.433,219.532 374.958,219.168 C375.856,218.553 376.875,218.245 378.015,218.245 C379.307,218.245 380.346,218.563 381.133,219.199 C381.577,219.562 381.981,220.097 382.344,220.803 C382.95,219.935 383.661,219.292 384.479,218.873 C385.296,218.455 386.214,218.245 387.234,218.245 C389.413,218.245 390.897,219.032 391.684,220.606 C392.108,221.454 392.32,222.594 392.32,224.027 L392.32,234.82 L389.489,234.82 L389.489,223.558 C389.489,222.478 389.219,221.737 388.679,221.333 C388.139,220.929 387.481,220.728 386.704,220.728 C385.634,220.728 384.713,221.086 383.941,221.802 C383.169,222.519 382.783,223.715 382.783,225.39 L382.783,234.82 L380.013,234.82 L380.013,224.239 C380.013,223.139 379.882,222.337 379.62,221.833 C379.206,221.076 378.434,220.697 377.304,220.697 C376.275,220.697 375.339,221.096 374.496,221.893 C373.653,222.69 373.232,224.133 373.232,226.222 L373.232,234.82 L370.508,234.82 L370.508,218.608 M406.416,219.055 C407.496,219.595 408.318,220.294 408.883,221.151 C409.428,221.969 409.792,222.922 409.973,224.012 C410.135,224.759 410.216,225.95 410.216,227.585 L398.333,227.585 C398.384,229.229 398.772,230.549 399.499,231.543 C400.225,232.537 401.35,233.034 402.874,233.034 C404.297,233.034 405.432,232.564 406.28,231.626 C406.764,231.081 407.107,230.45 407.309,229.734 L409.988,229.734 C409.918,230.329 409.683,230.993 409.285,231.724 C408.886,232.456 408.439,233.054 407.945,233.518 C407.118,234.325 406.093,234.87 404.872,235.153 C404.216,235.314 403.475,235.395 402.647,235.395 C400.629,235.395 398.918,234.661 397.516,233.193 C396.113,231.724 395.412,229.668 395.412,227.024 C395.412,224.421 396.118,222.307 397.531,220.682 C398.944,219.057 400.79,218.245 403.071,218.245 C404.221,218.245 405.336,218.515 406.416,219.055 M407.415,225.42 C407.304,224.239 407.047,223.296 406.643,222.589 C405.897,221.278 404.65,220.622 402.904,220.622 C401.653,220.622 400.604,221.073 399.756,221.976 C398.908,222.88 398.459,224.027 398.409,225.42 L407.415,225.42 Z" style="stroke:none;fill-rule:nonzero;fill:#000000;fill-opacity:1;"/>
        </g>
    </g>
</svg>
